<svg width="170" height="52" viewBox="0 0 170 52" fill="none" xmlns="http://www.w3.org/2000/svg">
<g clip-path="url(#clip0_509_914)">
<path d="M47.6262 20.9802C42.8251 15.2545 31.6123 17.6501 22 25.3837C22 25.5825 22 25.7714 22 25.9702C22 32.9682 23.004 38.9623 24.4254 41.5169C24.6441 41.9642 24.9423 42.3619 25.3002 42.6899C25.6382 43.0577 26.0258 43.3559 26.4831 43.5746C28.4513 44.678 32.4771 45.5229 37.4175 45.8509C37.7455 45.6024 38.0835 45.344 38.4016 45.0756C47.7853 37.4016 52.5268 26.845 47.6163 20.9802" fill="#ED6C00"/>
<path d="M58.8787 9.49901C58.8191 9.42942 58.7495 9.37972 58.6799 9.31014C58.6203 9.24056 58.5606 9.18091 58.501 9.12127C56.8509 7.33201 50.1014 6 42.0298 6C35.0318 6 29.0378 6.99404 26.4831 8.42545C26.0358 8.64413 25.6282 8.95229 25.3002 9.32008C25.2406 9.37972 25.1809 9.43936 25.1213 9.48907C23.5408 10.9503 22.2982 16.4374 22.0497 23.3161C33.3618 14.5288 46.1054 12.1332 51.0855 18.0775C56.0954 24.0517 52.2584 36.3678 41.5924 46C41.7415 46 41.8807 46 42.0398 46C50.1213 46 56.8807 44.658 58.5209 42.8787C58.5805 42.8191 58.6402 42.7594 58.6899 42.6998C59.0576 42.3618 59.3559 41.9642 59.5845 41.5169C61.006 38.9523 62.0099 32.9682 62.0099 25.9702C62.0099 17.8887 60.6779 11.1491 58.8887 9.49901" fill="#ED6C00"/>
<path d="M133.521 40.2645C135.926 42.4712 141.364 42.5905 141.384 42.5905H141.503L141.473 39.9762H141.364C141.364 39.9762 137.765 39.678 136.324 38.336C134.962 37.0537 134.704 35.5428 134.704 32.5209C134.704 31.9643 134.594 30.5726 134.594 27.9981C134.594 26.9742 134.594 25.7814 134.614 24.3798H140.618V20.9205H134.654C134.704 16.9046 134.753 14.6084 134.753 14.6084V14.4692L130.628 14.9066V15.016C130.628 15.016 130.588 25.3539 130.588 28.9325V29.5587C130.588 33.4752 130.588 37.5806 133.511 40.2744" fill="white"/>
<path d="M118.779 20.8708C117.567 20.8708 114.028 21.0597 111.891 23.2665C108.71 26.5369 108.889 29.3699 108.839 32.2029C108.839 32.8092 108.829 35.672 108.829 38.3162C108.829 39.8768 108.829 41.3579 108.839 42.2426V42.3619H113.034V42.2426C113.014 39.9265 112.994 36.9742 112.994 34.5388C112.994 32.1035 113.014 30.2148 113.054 29.8669C113.213 28.505 113.372 27.0239 114.833 25.2347C116.026 23.7337 119.187 23.5448 119.187 23.5448L119.286 23.5249L119.326 20.8907H118.789L118.779 20.8708Z" fill="white"/>
<path d="M100.588 42.3221H104.584V20.8708H104.465H100.588V42.3221Z" fill="white"/>
<path d="M122.666 42.3221H126.652V20.8708H126.543H122.666V42.3221Z" fill="white"/>
<path d="M144.555 42.3221H148.571V20.8708H148.451H144.555V42.3221Z" fill="white"/>
<path d="M102.567 14.7573C103.879 14.7474 104.903 13.7037 104.903 12.4114C104.903 11.1192 103.869 10.0754 102.567 10.0754C101.264 10.0754 100.241 11.1192 100.241 12.4114C100.241 13.7037 101.274 14.7474 102.567 14.7573Z" fill="white"/>
<path d="M124.654 14.7573C125.946 14.7474 126.98 13.7037 126.98 12.4114C126.98 11.1192 125.946 10.0754 124.654 10.0754C123.362 10.0754 122.318 11.1192 122.318 12.4114C122.318 13.7037 123.352 14.7474 124.654 14.7573Z" fill="white"/>
<path d="M146.553 14.7573C147.855 14.7474 148.889 13.7037 148.889 12.4114C148.889 11.1192 147.855 10.0754 146.553 10.0754C145.25 10.0754 144.217 11.1192 144.217 12.4114C144.217 13.7037 145.27 14.7474 146.553 14.7573Z" fill="white"/>
<path d="M75.5785 31.7953C75.5785 36.179 78.342 39.8967 81.7913 41.4673C83.5308 42.2625 84.9821 42.5209 86.2147 42.5209C87.4473 42.5209 88.4314 42.2625 89.3161 41.9643L89.4255 41.9345L88.7992 39.9364L88.6899 39.9762C88.6899 39.9762 88.0934 40.1849 87.1292 40.1849C86.9006 40.1849 86.6422 40.1651 86.3738 40.1452C81.9205 39.6581 79.6938 35.2545 79.6938 31.676C79.6938 28.0975 81.7316 23.4255 86.4135 23.4255C89.6441 23.4056 91.8111 26.0597 92.2187 28.0975C92.3976 28.9225 92.4573 32.4812 92.4573 36.3877C92.4573 41.9742 92.3479 42.2028 92.3479 42.2128L92.328 42.3321L96.3936 42.3022V42.1929C96.3936 42.1929 96.493 33.4553 96.493 30.016C96.4831 25.503 92.497 20.3738 86.3738 20.344H86.3241C79.8529 20.344 75.5785 26.0498 75.5587 31.7953" fill="white"/>
</g>
<defs>
<clipPath id="clip0_509_914">
<rect width="126.889" height="40" fill="white" transform="translate(22 6)"/>
</clipPath>
</defs>
</svg>
