<svg width="32" height="32" viewBox="0 0 32 32" fill="none" xmlns="http://www.w3.org/2000/svg">
<path fill-rule="evenodd" clip-rule="evenodd" d="M5.46026 5.46038C6.07394 4.8467 7.06892 4.8467 7.6826 5.46038L16 13.7778L24.3174 5.46038C24.9311 4.8467 25.9261 4.8467 26.5397 5.46038C27.1534 6.07406 27.1534 7.06904 26.5397 7.68272L18.2223 16.0001L26.5397 24.3175C27.1534 24.9312 27.1534 25.9262 26.5397 26.5399C25.9261 27.1535 24.9311 27.1535 24.3174 26.5399L16 18.2225L7.6826 26.5399C7.06892 27.1535 6.07394 27.1535 5.46026 26.5399C4.84658 25.9262 4.84658 24.9312 5.46026 24.3175L13.7777 16.0001L5.46026 7.68272C4.84658 7.06904 4.84658 6.07406 5.46026 5.46038Z" fill="#333333"/>
</svg>
