<svg width="170" height="52" viewBox="0 0 170 52" fill="none" xmlns="http://www.w3.org/2000/svg">
<path d="M44.6838 16.7017H47.758V34.6633H44.6838V16.7017Z" fill="white"/>
<path d="M49.8072 21.8253H52.8392V22.5488C53.1796 22.1233 53.6114 21.7799 54.1026 21.544C54.591 21.3344 55.1185 21.2316 55.6498 21.2425C56.4695 21.2344 57.2802 21.413 58.0207 21.7647C58.7304 22.1144 59.3652 22.599 59.8896 23.1914C60.4441 22.589 61.1137 22.1039 61.8588 21.7647C62.6231 21.4211 63.4515 21.2431 64.2895 21.2425C65.0711 21.24 65.845 21.3973 66.5636 21.7049C67.2584 21.9975 67.8871 22.4272 68.4123 22.9682C69.5007 24.0715 70.1138 25.5572 70.1203 27.107L70.1406 34.6813H67.1085L67.0883 27.107C67.0869 26.7344 67.0119 26.3657 66.8676 26.0222C66.7288 25.6838 66.5238 25.3765 66.2646 25.1185C66.002 24.8595 65.6962 24.6486 65.3608 24.4952C65.0203 24.3415 64.6496 24.2661 64.276 24.2745C63.903 24.2719 63.5335 24.347 63.1912 24.4952C62.8618 24.6488 62.5623 24.8598 62.3069 25.1185C62.0476 25.3765 61.8426 25.6838 61.7038 26.0222C61.5596 26.3657 61.4846 26.7344 61.4832 27.107L61.5034 34.6813H58.4713L58.4511 27.107C58.4517 26.7277 58.3767 26.352 58.2304 26.002C58.0912 25.6638 57.8863 25.3565 57.6277 25.0979C57.3691 24.8393 57.0618 24.6345 56.7237 24.4952C56.3795 24.3529 56.0112 24.278 55.6388 24.2745C55.2658 24.2719 54.8964 24.347 54.554 24.4952C54.2246 24.6488 53.9251 24.8598 53.6697 25.1185C53.4104 25.3765 53.2054 25.6838 53.0666 26.0222C52.9245 26.3522 52.8495 26.7073 52.846 27.0666L52.8662 34.6409H49.8341L49.8072 21.8253Z" fill="white"/>
<path d="M72.2293 28.2346C72.2207 27.2897 72.4053 26.3531 72.7717 25.4821C73.1216 24.6573 73.6262 23.9071 74.2582 23.2721C74.8889 22.6397 75.6405 22.141 76.4683 21.8057C78.2182 21.0823 80.1836 21.0823 81.9336 21.8057C83.6008 22.5086 84.9273 23.8351 85.6302 25.5023C86.3536 27.2523 86.3536 29.2177 85.6302 30.9676C84.9273 32.6348 83.6008 33.9613 81.9336 34.6642C81.0697 35.0305 80.1397 35.2152 79.2014 35.2066C78.8231 35.2063 78.4459 35.166 78.0761 35.0862C77.7048 35.0056 77.3417 34.8912 76.9913 34.7442C76.6517 34.6077 76.3226 34.4464 76.0067 34.2616C75.7209 34.0935 75.4518 33.8983 75.2032 33.6788V39.7076H72.2293V28.2346ZM75.2032 28.2346C75.1972 28.7675 75.307 29.2954 75.525 29.7818C75.9417 30.7344 76.7023 31.495 77.655 31.9118C78.1433 32.1239 78.6699 32.2333 79.2022 32.2333C79.7345 32.2333 80.2612 32.1239 80.7494 31.9118C81.7021 31.495 82.4627 30.7344 82.8794 29.7818C83.0915 29.2935 83.2009 28.7669 83.2009 28.2346C83.2009 27.7022 83.0915 27.1756 82.8794 26.6874C82.4627 25.7347 81.7021 24.9741 80.7494 24.5573C80.2612 24.3453 79.7345 24.2358 79.2022 24.2358C78.6699 24.2358 78.1433 24.3453 77.655 24.5573C76.7023 24.9741 75.9417 25.7347 75.525 26.6874C75.307 27.1737 75.1972 27.7016 75.2032 28.2346Z" fill="white"/>
<path d="M87.5598 28.214C87.5513 27.2757 87.7359 26.3457 88.1022 25.4818C88.452 24.652 88.9643 23.9005 89.609 23.2718C90.244 22.6397 90.9942 22.1351 91.819 21.7852C93.569 21.0618 95.5344 21.0618 97.2843 21.7852C98.9515 22.4881 100.278 23.8146 100.981 25.4818C101.347 26.3457 101.532 27.2757 101.523 28.214V34.6437H98.5494V33.9404C97.3857 34.7775 95.9846 35.2202 94.5512 35.2038C93.5603 35.2179 92.5766 35.0335 91.6581 34.6614C90.8279 34.3215 90.0759 33.8157 89.4481 33.1749C88.8339 32.5414 88.3553 31.7894 88.0415 30.9648C87.7259 30.0819 87.563 29.1517 87.5598 28.214ZM90.5338 28.214C90.5278 28.747 90.6375 29.2749 90.8555 29.7612C91.2722 30.7139 92.0328 31.4745 92.9855 31.8913C93.4719 32.1092 93.9998 32.219 94.5327 32.213C95.0633 32.216 95.5892 32.1135 96.0799 31.9115C96.5546 31.7164 96.9903 31.4374 97.366 31.0878C97.7339 30.7272 98.0275 30.298 98.2302 29.8244C98.4359 29.3139 98.5383 28.7677 98.5317 28.2174C98.5377 27.6845 98.4279 27.1566 98.21 26.6702C97.7932 25.7175 97.0326 24.957 96.0799 24.5402C95.5917 24.3281 95.065 24.2187 94.5327 24.2187C94.0004 24.2187 93.4738 24.3281 92.9855 24.5402C92.0328 24.957 91.2722 25.7175 90.8555 26.6702C90.6474 27.1585 90.538 27.6832 90.5338 28.214Z" fill="white"/>
<path d="M105.924 28.2141C105.918 28.7471 106.028 29.2749 106.246 29.7613C106.663 30.714 107.423 31.4746 108.376 31.8914C108.862 32.1093 109.39 32.2191 109.923 32.2131C110.553 32.2227 111.178 32.0924 111.751 31.8316C112.284 31.5982 112.743 31.2229 113.077 30.7468H116.412C116.111 31.4676 115.712 32.1438 115.227 32.7563C114.787 33.2964 114.265 33.7641 113.68 34.1427C113.126 34.4956 112.524 34.7662 111.892 34.9462C111.256 35.1131 110.601 35.2008 109.943 35.2073C109.005 35.2158 108.075 35.0312 107.211 34.6649C105.544 33.962 104.217 32.6354 103.514 30.9683C102.791 29.2183 102.791 27.2529 103.514 25.503C104.217 23.8358 105.544 22.5092 107.211 21.8064C108.075 21.44 109.005 21.2554 109.943 21.264C110.587 21.2661 111.228 21.347 111.852 21.5048C112.498 21.6685 113.116 21.9328 113.68 22.2881C114.95 23.0839 115.929 24.2677 116.473 25.6638H113.118C112.77 25.1715 112.289 24.7883 111.731 24.5588C111.169 24.3318 110.569 24.2156 109.963 24.2169C109.43 24.2109 108.902 24.3206 108.415 24.5386C107.463 24.9554 106.702 25.7159 106.285 26.6686C106.046 27.1485 105.922 27.6778 105.924 28.2141Z" fill="white"/>
<path d="M117.798 24.7995V21.8256H118.983V17.2446H121.957V21.8458H124.95V24.8197H121.957V34.6639H118.983V24.8189H117.798V24.7995Z" fill="white"/>
<path d="M126.276 18.5699C126.269 18.3173 126.314 18.0659 126.407 17.8311C126.5 17.5962 126.64 17.3828 126.818 17.2038C126.988 17.0294 127.191 16.8914 127.416 16.7982C127.64 16.7049 127.882 16.6584 128.125 16.6614C128.377 16.6544 128.629 16.6989 128.863 16.7921C129.098 16.8854 129.312 17.0254 129.491 17.2038C129.671 17.3816 129.812 17.5949 129.905 17.83C129.998 18.0651 130.042 18.317 130.033 18.5699C130.038 18.8133 129.992 19.0551 129.899 19.2799C129.806 19.5048 129.667 19.7078 129.491 19.8762C129.313 20.0561 129.1 20.1971 128.865 20.2905C128.629 20.3838 128.378 20.4275 128.125 20.4186C127.635 20.4175 127.165 20.2223 126.819 19.8759C126.472 19.5294 126.277 19.0598 126.276 18.5699ZM126.618 21.8251H129.592V34.6432H126.618V21.8251Z" fill="white"/>
<path d="M131.38 28.214C131.371 27.2757 131.556 26.3457 131.922 25.4818C132.272 24.652 132.784 23.9005 133.429 23.2718C134.064 22.6397 134.814 22.1351 135.639 21.7852C137.389 21.0618 139.355 21.0618 141.104 21.7852C142.772 22.4881 144.098 23.8146 144.801 25.4818C145.524 27.2318 145.524 29.1972 144.801 30.9471C144.098 32.6143 142.772 33.9408 141.104 34.6437C139.355 35.3671 137.389 35.3671 135.639 34.6437C133.972 33.9339 132.641 32.6105 131.922 30.9471C131.556 30.083 131.371 29.1526 131.38 28.214ZM134.354 28.214C134.348 28.747 134.458 29.2749 134.676 29.7612C135.092 30.7139 135.853 31.4745 136.806 31.8913C137.294 32.1033 137.821 32.2128 138.353 32.2128C138.885 32.2128 139.412 32.1033 139.9 31.8913C140.853 31.4745 141.613 30.7139 142.03 29.7612C142.242 29.273 142.352 28.7464 142.352 28.214C142.352 27.6817 142.242 27.1551 142.03 26.6668C141.613 25.7142 140.853 24.9536 139.9 24.5368C139.412 24.3247 138.885 24.2153 138.353 24.2153C137.821 24.2153 137.294 24.3247 136.806 24.5368C135.853 24.9536 135.092 25.7142 134.676 26.6668C134.458 27.1532 134.348 27.6811 134.354 28.214Z" fill="white"/>
<path d="M44.6232 15.0747C49.5259 13.0053 54.0866 13.6278 58.3458 16.7592C58.4461 16.8434 58.5471 16.9403 58.7072 16.7794C58.4056 16.4577 58.1243 16.1368 57.8228 15.8353C53.684 11.9374 48.9624 11.6156 43.8593 13.5048C43.0534 13.7104 42.2957 14.0721 41.629 14.5694C37.972 16.9201 36.2244 20.396 35.5413 24.5752C35.1395 27.6079 35.7613 30.6879 37.3082 33.3271C38.8551 35.9663 41.2385 38.0138 44.0808 39.1451C49.6059 41.3552 55.9345 39.5469 58.9287 35.6077C58.5269 35.8688 58.2658 36.0289 58.0022 36.2108C55.3618 38.0216 52.1719 38.8533 48.9835 38.5623C47.2624 38.4792 45.5842 37.9977 44.0808 37.1558C43.6993 36.8947 43.3371 36.6134 42.9556 36.3523C40.2803 34.5466 38.4308 31.7532 37.813 28.5853C37.1953 25.4173 37.8598 22.1337 39.6607 19.4552C40.9536 17.6307 42.6523 16.1312 44.6232 15.0747Z" fill="#3F8EBA"/>
<path d="M49.2639 6.85791C44.6223 6.53617 36.9672 10.2538 36.1249 13.3272C36.5671 12.9456 36.9487 12.6239 37.3302 12.3224C40.9277 9.41657 45.4457 7.89304 50.0682 8.02694C56.3766 8.2476 61.3602 11.0203 65.2572 15.9027C62.5452 10.093 56.5586 6.71725 49.2639 6.85791Z" fill="#996FB0"/>
<path d="M61.1589 13.5506C60.4557 12.6667 59.6225 11.8946 58.6878 11.2606C55.2419 8.88124 50.9966 7.95725 46.8736 8.68919C41.7107 9.14822 34.598 15.0144 34.3369 19.1094C36.0856 15.6291 38.9707 12.8504 42.5142 11.2336C43.7854 10.7239 45.0872 10.2943 46.4121 9.9475C46.5041 9.93819 46.5931 9.90948 46.6732 9.86328C46.8074 9.86656 46.9417 9.8598 47.0749 9.84306C49.495 9.46978 51.9665 9.60767 54.33 10.2478C56.6935 10.888 58.8967 12.0163 60.7976 13.5599C60.8784 13.6483 60.9989 13.7494 61.1589 13.5506Z" fill="#82C66D"/>
<path d="M70.2812 14.8748C65.9816 6.71774 59.1502 2.57812 50.0287 2.0155C48.8234 1.93128 47.6578 2.2168 46.4525 2.23617C42.3454 2.56406 38.4222 4.07896 35.1606 6.59645C33.6023 7.57359 32.223 8.81049 31.0825 10.2535C26.3811 15.7584 24.251 22.1274 25.2356 29.3008C26.5217 38.5023 31.5642 45.0161 40.1837 48.6083C42.5879 49.651 45.2021 50.1187 47.8186 49.9744C46.9343 49.7133 46.0306 49.512 45.1235 49.2914C34.5584 46.8 26.4813 36.7142 27.3252 25.2824C27.5718 21.6053 28.7021 18.042 30.6201 14.8951C32.004 12.7262 33.6884 10.7645 35.623 9.06843C36.4265 8.52603 37.2106 7.96341 38.0141 7.44122C40.6184 5.88124 43.4744 4.78655 46.4542 4.20617C47.0215 4.22634 47.5887 4.16536 48.1387 4.02509C51.8532 3.72679 55.5853 4.32019 59.0241 5.7559C62.4629 7.19161 65.5089 9.42807 67.9086 12.2791C68.9336 13.4447 69.7574 14.7502 70.6813 15.9757C70.59 15.5948 70.4558 15.2255 70.2812 14.8748Z" fill="#F6C554"/>
<path d="M51.2745 45.2524H49.0442C48.5818 45.2322 48.1405 45.1918 47.6781 45.1682C47.1728 45.0478 46.6531 44.9071 46.1511 44.8069C43.8769 44.3317 41.6885 43.512 39.6616 42.3762C39.573 42.2775 39.4791 42.1836 39.3803 42.0949C36.3319 40.1742 33.9581 37.3508 32.5893 34.0178C31.8347 32.1273 31.2562 30.1712 30.8611 28.1743C30.8611 28.1743 30.8409 28.2947 30.8206 28.5163C30.8004 28.7571 30.8004 28.9989 30.8004 29.2398C30.7802 31.972 31.5441 39.3256 39.5597 44.6907C40.4402 45.3809 41.4143 45.9424 42.4528 46.3583C44.4872 47.4613 46.7689 48.0282 49.083 48.0057C52.4478 48.229 55.7967 47.3778 58.6466 45.575C61.4233 43.7517 63.5933 41.1419 64.8792 38.0791C61.1228 41.9972 56.84 44.8305 51.2745 45.2524Z" fill="#EB4E9C"/>
</svg>
