<svg width="32" height="32" viewBox="0 0 32 32" fill="none" xmlns="http://www.w3.org/2000/svg">
<path fill-rule="evenodd" clip-rule="evenodd" d="M8.91196 4H23.088C25.7895 4 27.9999 6.2104 27.9999 8.91196V23.088C27.9999 25.7895 25.7895 27.9999 23.088 27.9999H8.91196C6.2104 28 4 25.7896 4 23.088V8.91196C4 6.2104 6.2104 4 8.91196 4Z" fill="#3ACE01"/>
<path fill-rule="evenodd" clip-rule="evenodd" d="M15.9767 7.97556C20.8397 7.97556 24.7818 11.1323 24.7818 15.0262C24.7818 16.3864 24.3005 17.6563 23.4673 18.7334C23.426 18.7947 23.3722 18.8624 23.3043 18.9373L23.2991 18.9429C23.0145 19.2834 22.694 19.6031 22.3416 19.8982C19.9066 22.1488 15.8988 24.8283 15.3698 24.4149C14.91 24.0556 16.1272 22.298 14.7229 22.0055C14.6249 21.9942 14.5272 21.9821 14.4303 21.9684L14.4285 21.9683C10.3039 21.3823 7.17173 18.4972 7.17173 15.0262C7.17161 11.1323 11.1138 7.97556 15.9767 7.97556Z" fill="white"/>
<path fill-rule="evenodd" clip-rule="evenodd" d="M10.8678 17.2751H12.6436C12.8962 17.2751 13.1028 17.0685 13.1028 16.8159V16.7775C13.1028 16.5249 12.8962 16.3183 12.6436 16.3183H11.3653V13.4099C11.3653 13.1573 11.1587 12.9506 10.9061 12.9506H10.8678C10.6152 12.9506 10.4085 13.1573 10.4085 13.4099V16.8158C10.4085 17.0685 10.6152 17.2751 10.8678 17.2751ZM21.872 15.1402V15.1019C21.872 14.8493 21.6653 14.6427 21.4127 14.6427H20.1344V13.9156H21.4127C21.6653 13.9156 21.872 13.709 21.872 13.4564V13.4181C21.872 13.1655 21.6653 12.9588 21.4127 12.9588H19.6368C19.3842 12.9588 19.1776 13.1655 19.1776 13.4181V16.824C19.1776 17.0766 19.3842 17.2833 19.6368 17.2833H21.4127C21.6653 17.2833 21.872 17.0766 21.872 16.824V16.7857C21.872 16.5331 21.6653 16.3265 21.4127 16.3265H20.1344V15.5993H21.4127C21.6653 15.5995 21.872 15.3928 21.872 15.1402ZM18.4568 17.1382C18.5417 17.0525 18.5896 16.9366 18.5897 16.8159V13.41C18.5897 13.1574 18.3831 12.9508 18.1304 12.9508H18.0921C17.8395 12.9508 17.6329 13.1574 17.6329 13.41V15.4093L15.973 13.183C15.8937 13.0446 15.7444 12.9508 15.5743 12.9508H15.536C15.2834 12.9508 15.0767 13.1574 15.0767 13.41V16.8159C15.0767 17.0685 15.2833 17.2752 15.536 17.2752H15.5743C15.8269 17.2752 16.0335 17.0685 16.0335 16.8159V14.7792L17.7053 17.0626C17.7156 17.0786 17.7268 17.094 17.739 17.1086C17.7849 17.1713 17.8478 17.2143 17.9178 17.2406C17.9716 17.2628 18.0305 17.2751 18.092 17.2751H18.1303C18.2052 17.2752 18.2789 17.2568 18.3449 17.2215C18.3908 17.1997 18.4295 17.1715 18.4568 17.1382ZM13.9327 17.2751H13.971C14.2236 17.2751 14.4302 17.0685 14.4302 16.8159V13.4099C14.4302 13.1573 14.2236 12.9507 13.971 12.9507H13.9327C13.6801 12.9507 13.4734 13.1573 13.4734 13.4099V16.8159C13.4734 17.0685 13.6801 17.2751 13.9327 17.2751Z" fill="#3ACE01"/>
</svg>
