<svg width="170" height="52" viewBox="0 0 170 52" fill="none" xmlns="http://www.w3.org/2000/svg">
<path d="M18.0271 16.5954C19.3235 20.83 19.6966 25.2934 19.1211 29.6845C22.4032 27.9888 24.9819 26.8557 28.5844 26.3087C30.5085 25.9529 32.4706 25.8478 34.4217 25.9961C34.4217 25.9101 34.4217 25.8164 34.4217 25.7382C34.4217 24.7224 34.4217 23.7221 34.3592 22.7297C32.5415 22.4068 30.6753 22.4814 28.8891 22.9485C23.716 24.0503 21.5749 25.9883 21.5749 25.9883C22.0088 21.7386 21.7448 17.4466 20.7934 13.2821C20.4724 12.1449 20.0323 11.0448 19.4806 10C19.1993 10 18.9414 10 18.6992 10C17.5036 10 16.3548 10 15.167 10.086C16.3804 12.132 17.3408 14.3178 18.0271 16.5954Z" fill="#12337C"/>
<path d="M23.2706 11.4769C24.1199 15.0578 24.3681 18.7549 24.0051 22.4171C26.6077 21.0709 29.4589 20.273 32.3822 20.0728C32.726 20.0728 33.781 20.0728 34.2576 20.0728C34.0925 17.0616 33.7638 14.0617 33.273 11.0862C29.8227 10.5191 26.3418 10.1564 22.8486 10C23.0283 10.5392 23.1221 10.9143 23.2706 11.4769Z" fill="#12337C"/>
<path d="M25.318 29.3641C22.1381 29.9727 19.1361 31.2895 16.5346 33.2166C17.7011 27.3243 16.965 21.2137 14.4325 15.767C13.545 13.8406 12.4664 12.0081 11.213 10.297C8.76705 10.5001 6.39928 10.7971 4.17999 11.1722C2.60667 20.8296 2.60667 30.6781 4.17999 40.3355C13.8383 41.8983 23.685 41.8983 33.3434 40.3355C33.9553 36.6441 34.3234 32.9164 34.4452 29.1766C31.7492 28.6295 29.7565 28.5045 25.318 29.3641Z" fill="#12337C"/>
<path d="M97.0908 34.5217C98.5912 35.8814 101.623 35.9596 101.967 35.9596H105.554L105.624 34.2248C105.624 34.2248 103.186 34.2248 102.334 34.2248C101.008 34.1795 99.7524 33.6188 98.8335 32.6619C98.1302 31.7398 97.8723 30.7864 97.8254 28.9735C97.8254 28.1452 97.9035 17.1191 97.9035 17.1191H95.317C95.317 17.1191 95.2388 25.2617 95.2388 27.4888V27.8717C95.2857 30.3176 95.2388 32.8494 97.0908 34.5217Z" fill="#040000"/>
<path d="M165.178 40.5701C163.677 41.9298 160.653 42.0001 160.294 42.0001H156.488L156.66 40.3825H160.317C160.653 40.3825 162.552 40.195 163.443 39.3588C164.334 38.5227 164.451 37.6318 164.451 35.7564C164.451 35.4047 164.412 22.8392 164.412 22.8392H166.975C166.975 22.8392 166.975 31.2944 166.975 33.5137V33.8966C166.991 36.3503 166.999 38.89 165.178 40.5701Z" fill="#040000"/>
<path d="M109.563 22.6985H107.085V35.9049H109.563V22.6985Z" fill="#040000"/>
<path d="M108.328 19.3305C108.616 19.3321 108.898 19.2479 109.138 19.0888C109.379 18.9297 109.566 18.7028 109.677 18.4369C109.788 18.171 109.818 17.8781 109.762 17.5954C109.706 17.3127 109.567 17.053 109.364 16.8493C109.16 16.6456 108.9 16.507 108.617 16.4511C108.335 16.3953 108.042 16.4247 107.776 16.5357C107.51 16.6467 107.283 16.8342 107.124 17.0744C106.965 17.3146 106.881 17.5967 106.882 17.8849C106.882 18.0747 106.92 18.2627 106.992 18.4381C107.065 18.6135 107.171 18.7729 107.306 18.9071C107.44 19.0414 107.599 19.1478 107.775 19.2205C107.95 19.2931 108.138 19.3305 108.328 19.3305Z" fill="#040000"/>
<path d="M161.896 35.983C161.114 35.983 158.95 35.8736 157.621 34.5452C155.644 32.5681 155.761 30.8568 155.73 29.1454C155.73 28.7859 155.73 27.059 155.73 25.4648V22.9955H158.332C158.332 24.3943 158.332 26.2619 158.332 27.7388C158.332 29.2158 158.332 30.3488 158.332 30.5598C158.383 31.588 158.77 32.5711 159.434 33.3574C160.177 34.2639 162.138 34.3654 162.138 34.3654H163.505L163.38 35.8658L162.161 35.9518L161.896 35.983Z" fill="#040000"/>
<path d="M133.42 29.7628C133.425 30.9829 133.772 32.1772 134.423 33.2093C135.074 34.2414 136.002 35.0699 137.101 35.6001C137.916 36.0015 138.81 36.2202 139.718 36.2409C140.343 36.2328 140.962 36.1165 141.547 35.8971H141.625L141.258 34.7093H141.188C140.888 34.7985 140.577 34.8407 140.265 34.8343C140.115 34.8449 139.963 34.8449 139.812 34.8343C137.179 34.5374 135.858 31.8961 135.858 29.7237C135.858 27.5513 137.069 24.7537 139.843 24.7459C140.647 24.7728 141.419 25.0637 142.041 25.5737C142.662 26.0836 143.098 26.7842 143.282 27.5669C143.412 29.228 143.456 30.8947 143.415 32.5603C143.455 33.7354 143.434 34.9117 143.352 36.0846V36.1628H145.751V36.1002C145.751 36.1002 145.806 30.8255 145.806 28.7547C145.755 27.1956 145.103 25.7166 143.985 24.6282C142.868 23.5398 141.372 22.9266 139.812 22.9173C135.96 22.8548 133.428 26.2932 133.42 29.7628Z" fill="#040000"/>
<path d="M112.134 17.1191C112.134 17.1191 112.134 28.4031 112.134 30.4739C112.235 32.0798 112.946 33.5863 114.121 34.6858C115.296 35.7852 116.846 36.3946 118.455 36.3894C122.433 36.3894 125.129 32.8651 125.129 29.3564C125.166 28.1586 124.851 26.9762 124.221 25.9563C123.592 24.9365 122.676 24.1242 121.589 23.6206C120.623 23.2068 119.585 22.9864 118.534 22.972C117.882 22.986 117.236 23.0993 116.619 23.308H116.549L116.924 24.5115H117.002C117.319 24.4318 117.644 24.395 117.971 24.4021H118.682C121.425 24.6912 122.738 26.8949 122.706 29.3486C122.706 31.5523 121.777 34.6155 118.557 34.553C117.602 34.5135 116.689 34.1523 115.965 33.5281C115.242 32.9038 114.751 32.0533 114.572 31.1147C114.434 29.961 114.387 28.7983 114.431 27.6372C114.47 23.1205 114.587 17.0722 114.587 17.0643" fill="#040000"/>
<path d="M79.61 34.6624C81.0713 35.9986 84.369 36.0768 84.3846 36.0768H84.4471V34.5139H84.3768C84.3768 34.5139 82.1888 34.3342 81.3214 33.5137C80.454 32.6931 80.3446 31.818 80.3446 29.9894C80.3446 29.6534 80.2743 28.8016 80.2743 27.2465C80.2743 26.6214 80.2743 25.8946 80.2743 25.0428H83.9236V22.9486H80.3055C80.3055 20.5105 80.368 19.1195 80.368 19.1195V19.0336L77.8596 19.2915V19.354C77.8596 19.354 77.8596 25.6055 77.8596 27.8013V28.1843C77.8205 30.5364 77.8127 33.0214 79.61 34.6624Z" fill="#040000"/>
<path d="M70.6391 22.8939C69.9045 22.8939 67.7634 23.0033 66.4584 24.3474C64.5282 26.3244 64.6376 28.0514 64.6064 29.7628C64.6064 30.1378 64.6064 31.8726 64.6064 33.4746C64.6064 34.428 64.6064 35.3266 64.6064 35.8658V35.9361H67.1539V35.8658C67.1539 34.4592 67.1539 32.6697 67.1539 31.1772C67.1539 29.6846 67.1539 28.5515 67.1539 28.3405C67.1963 27.3088 67.5781 26.3199 68.2401 25.5273C68.959 24.6209 70.8813 24.5037 70.8813 24.5037H70.936V22.9408H70.6L70.6391 22.8939Z" fill="#040000"/>
<path d="M132.701 22.8939C131.967 22.8939 129.818 23.0033 128.52 24.3474C126.59 26.3244 126.7 28.0514 126.668 29.7628C126.668 30.1378 126.668 31.8726 126.668 33.4746C126.668 34.428 126.668 35.3266 126.668 35.8658V35.9361H129.216V35.8658C129.216 34.4592 129.216 32.6697 129.216 31.1772C129.216 29.6846 129.216 28.5515 129.255 28.3405C129.295 27.3097 129.674 26.3209 130.333 25.5273C131.06 24.6209 132.982 24.5037 132.982 24.5037H133.037V22.9408H132.709L132.701 22.8939Z" fill="#040000"/>
<path d="M153.995 22.8939C153.261 22.8939 151.112 23.0033 149.815 24.3474C147.884 26.3244 147.994 28.0514 147.963 29.7628C147.963 30.1378 147.963 31.8726 147.963 33.4746C147.963 34.428 147.963 35.3266 147.963 35.8658V35.9361H150.51V35.8658C150.51 34.4592 150.51 32.6697 150.51 31.1772C150.51 29.6846 150.51 28.5515 150.549 28.3405C150.589 27.3097 150.968 26.3209 151.628 25.5273C152.354 24.6209 154.277 24.5037 154.277 24.5037H154.331V22.9408H154.003L153.995 22.8939Z" fill="#040000"/>
<path d="M72.999 35.9127H75.4215V22.8939H72.999V35.9127Z" fill="#040000"/>
<path d="M86.2835 35.9127H88.7216V22.8939H86.2835V35.9127Z" fill="#040000"/>
<path d="M59.6051 35.9127H62.0276V22.8939H59.6051V35.9127Z" fill="#040000"/>
<path d="M60.8086 19.2915C61.0902 19.293 61.3659 19.2109 61.6008 19.0556C61.8357 18.9003 62.0192 18.6787 62.1281 18.4189C62.2369 18.1592 62.2662 17.873 62.2122 17.5966C62.1582 17.3202 62.0234 17.0661 61.8248 16.8664C61.6262 16.6667 61.3728 16.5304 61.0967 16.4749C60.8206 16.4194 60.5343 16.4471 60.2739 16.5545C60.0136 16.6619 59.791 16.8442 59.6344 17.0783C59.4778 17.3123 59.3942 17.5876 59.3942 17.8692C59.3941 18.2451 59.5429 18.6057 59.8079 18.8721C60.073 19.1386 60.4327 19.2894 60.8086 19.2915Z" fill="#040000"/>
<path d="M74.2103 19.2915C74.4915 19.2915 74.7665 19.208 75.0004 19.0518C75.2343 18.8955 75.4166 18.6734 75.5242 18.4135C75.6319 18.1536 75.66 17.8676 75.6052 17.5918C75.5503 17.3159 75.4148 17.0625 75.2159 16.8636C75.017 16.6647 74.7636 16.5292 74.4877 16.4743C74.2118 16.4195 73.9259 16.4476 73.666 16.5553C73.4061 16.6629 73.184 16.8452 73.0277 17.0791C72.8714 17.313 72.788 17.5879 72.788 17.8692C72.788 18.2464 72.9379 18.6082 73.2046 18.8749C73.4713 19.1416 73.8331 19.2915 74.2103 19.2915Z" fill="#040000"/>
<path d="M87.4947 19.2915C87.7764 19.293 88.0521 19.2109 88.287 19.0556C88.5219 18.9003 88.7054 18.6787 88.8143 18.4189C88.9231 18.1592 88.9524 17.873 88.8984 17.5966C88.8444 17.3202 88.7096 17.0661 88.511 16.8664C88.3124 16.6667 88.059 16.5304 87.7829 16.4749C87.5068 16.4194 87.2205 16.4471 86.9601 16.5545C86.6998 16.6619 86.4772 16.8442 86.3206 17.0783C86.164 17.3123 86.0803 17.5876 86.0803 17.8692C86.0803 18.2451 86.2291 18.6057 86.4941 18.8721C86.7592 19.1386 87.1189 19.2894 87.4947 19.2915Z" fill="#040000"/>
<path d="M44.4452 29.5283C44.471 31.2373 45.1576 32.8698 46.3611 34.0835C47.5645 35.2971 49.1912 35.9975 50.8999 36.0377C51.5419 36.0309 52.1784 35.9174 52.7832 35.7017H52.8535L52.4706 34.4827H52.4081C52.1001 34.5674 51.7819 34.6094 51.4625 34.6077H51.0093C48.3055 34.3107 46.9536 31.6382 46.9536 29.4736C46.9536 27.309 48.1883 24.4646 51.0249 24.4568C51.844 24.4711 52.6349 24.7577 53.273 25.2713C53.9112 25.7849 54.3602 26.4964 54.5492 27.2934C54.6877 28.9671 54.7373 30.6469 54.6977 32.3259C54.7387 33.5035 54.7178 34.6825 54.6352 35.858V35.9283H57.1045V35.858C57.1045 35.858 57.1592 30.5598 57.1592 28.4734C57.0907 26.8929 56.4143 25.4001 55.2712 24.3065C54.1282 23.213 52.6068 22.6033 51.0249 22.6048C47.0318 22.5735 44.4452 26.0353 44.4452 29.5283Z" fill="#040000"/>
</svg>
