<svg width="32" height="32" viewBox="0 0 32 32" fill="none" xmlns="http://www.w3.org/2000/svg">
<path d="M10.7688 9C14.5072 9 17.5374 12.0514 17.5374 15.8153C17.5374 19.5792 14.5069 22.6303 10.7688 22.6303C7.03073 22.6303 4 19.5792 4 15.8153C4 12.0514 7.0305 9 10.7688 9ZM21.5782 9.39922C23.4474 9.39922 24.9626 12.2715 24.9626 15.8153H24.9628C24.9628 19.3582 23.4476 22.2314 21.5784 22.2314C19.7092 22.2314 18.194 19.3582 18.194 15.8153C18.194 12.2724 19.709 9.39922 21.5782 9.39922ZM26.8097 10.0675C27.4669 10.0675 28 12.6408 28 15.8153C28 18.9888 27.4672 21.5631 26.8097 21.5631C26.1522 21.5631 25.6196 18.9895 25.6196 15.8153C25.6196 12.6411 26.1524 10.0675 26.8097 10.0675Z" fill="white"/>
</svg>
